# xmcd
#
# Track frame offsets: 
#        150
#        20112
#        55822
#        79040
#        99367
#        117762
#        144620
#        163512
#        187622
#        209372
#        228152
#        257682
#
# Disc length: 3691 seconds
#
# Revision: 3
# Processed by: cddbd v1.5.2PL0 Copyright (c) Steve Scherf et al.
# Submitted via: ExactAudioCopy v1.0b3
#
DISCID=930e690c
DTITLE=DJ Cam - Abstract Manifesto
DYEAR=1996
DGENRE=Hip Hop
TTITLE0=Maiden Voyage • DJ Cam Quartet
TTITLE1=Hip Hop Opera
TTITLE2=Undweground Vibes (No Short Remixx)
TTITLE3=Life
TTITLE4=Freestylelifeshit • DJ Cam and Junglist Posse
TTITLE5=No Competition
TTITLE6=Summersmashit • DJ Cam and Junglist Posse
TTITLE7=Yes Yes Yo • DJ Cam Quartet
TTITLE8=パリの夏 (Un Eté A Paris) • DJ Cam Quartet
TTITLE9=Turntable Shit (Special Bonus Track For Japanese Hip Hop Tribe
TTITLE9=)
TTITLE10=The Return Of The Jedi (Extra Lucid Remix)
TTITLE11=Deep in A Mind Of A Slave (SU 10 Mix)
EXTD=YEAR: 1996
EXTT0=
EXTT1=
EXTT2=
EXTT3=
EXTT4=
EXTT5=
EXTT6=
EXTT7=
EXTT8=
EXTT9=
EXTT10=
EXTT11=
PLAYORDER=
